<svg xmlns="http://www.w3.org/2000/svg" xmlns:xlink="http://www.w3.org/1999/xlink" viewBox="0 0 238.76 166.91"><defs><style>.cls-1{fill:#ee3d61;}.cls-2{fill:#eaefac;}.cls-3{fill:#788262;}.cls-4{fill:url(#Dégradé_sans_nom_6);}.cls-5{fill:#111131;}</style><linearGradient id="Dégradé_sans_nom_6" x1="60.03" y1="83.2" x2="192.84" y2="83.2" gradientTransform="translate(-48.12 -9.42) rotate(3.93)" gradientUnits="userSpaceOnUse"><stop offset="0" stop-color="#111131"/><stop offset="1" stop-color="#e73b5f"/></linearGradient></defs><g id="Calque_2" data-name="Calque 2"><g id="Calque_1-2" data-name="Calque 1"><polygon class="cls-1" points="213.67 12.21 186.15 0.42 188.79 11.36 168.42 4.59 172.37 16.29 158.16 12.87 178.71 23.46 176.94 13.68 197.77 21.16 194.13 8.55 213.67 12.21"/><polygon class="cls-1" points="238.76 106.38 211.24 94.59 213.87 105.53 193.51 98.76 197.45 110.45 183.24 107.04 203.8 117.63 202.02 107.85 222.85 115.32 219.22 102.72 238.76 106.38"/><polygon class="cls-2" points="167.7 96.51 176.43 129.28 134.93 140.05 126.27 107.55 167.7 96.51"/><polygon class="cls-2" points="141.99 0 150.74 32.86 109.28 43.63 100.59 11.03 141.99 0"/><polygon class="cls-3" points="145.08 44.89 150.81 33.12 109.35 43.88 103.51 55.96 145.08 44.89"/><polygon class="cls-3" points="170.65 140.87 176.38 129.1 134.91 139.86 129.08 151.94 170.65 140.87"/><path class="cls-4" d="M100.59,11,55.91,23.21S30.58,28.26,16,48.24C3.87,64.94,3.6,89,10.32,107.94s19.68,46.9,56.83,47c0,0,5.11,1.47,30.51-5.14,18.92-4.92,37.26-9.91,37.26-9.91l-8.64-32.41L85.87,118s-26.37,8.14-39.16-12.84C34,84.34,45.29,65.32,58,59c.15-.08.95,0,1.09-.11,1.23-.77,8.19-5.35,23.33-8.12l27-6.91Z"/><path class="cls-5" d="M103.51,56l5.84-12.08L74.44,52.54S54.61,57.91,50,65a32.73,32.73,0,0,0-8,14.52s6.16-7.38,14-10c0,0,3.36-2,10.93-3.74Z"/><path class="cls-5" d="M11,58S-.67,77.07,0,97.38s12.29,43,15.79,46.78,14.75,22.11,46.78,22.72c0,0,9.61.77,31.21-5.54l35.27-9.4,5.84-12.07s-39.61,10.82-45.75,12-18.45,5.24-37.63.7-29.26-20.53-29.26-20.53S10.3,113.92,8.4,99.17a15.79,15.79,0,0,0-.3-1.67C7.12,93.62,3.09,75,11,58Z"/></g></g></svg>