<svg xmlns="http://www.w3.org/2000/svg" xmlns:xlink="http://www.w3.org/1999/xlink" viewBox="0 0 206.68 210"><defs><style>.cls-1{fill:#e83b5f;}.cls-2{fill:#9a9b6a;}.cls-10,.cls-3,.cls-7,.cls-8,.cls-9{fill:none;}.cls-3{stroke:#e83b5f;}.cls-10,.cls-3,.cls-7,.cls-9{stroke-miterlimit:10;}.cls-4{fill:url(#Dégradé_sans_nom_6);}.cls-5{fill:url(#Dégradé_sans_nom_6-2);}.cls-6{fill:url(#Dégradé_sans_nom_6-3);}.cls-7{stroke:#aea9d0;}.cls-9{stroke:#fff;}.cls-10{stroke:#111131;}</style><linearGradient id="Dégradé_sans_nom_6" x1="11.02" y1="122.22" x2="196.34" y2="122.22" gradientUnits="userSpaceOnUse"><stop offset="0" stop-color="#111131"/><stop offset="1" stop-color="#e73b5f"/></linearGradient><linearGradient id="Dégradé_sans_nom_6-2" x1="11.11" y1="141.84" x2="22.18" y2="141.84" xlink:href="#Dégradé_sans_nom_6"/><linearGradient id="Dégradé_sans_nom_6-3" x1="185.11" y1="141.84" x2="196.18" y2="141.84" xlink:href="#Dégradé_sans_nom_6"/></defs><g id="Calque_2" data-name="Calque 2"><g id="Calque_1-2" data-name="Calque 1"><ellipse class="cls-1" cx="103.68" cy="207" rx="44" ry="3"/><path class="cls-2" d="M26.18,135.5h-18v-1.4H6.86v2.73s-3.39-.12-3.54-2.73,0-40.55,0-40.55,2.86-58,61.86-83,104,15,111,23,29,30,28,76l0,24.3a4.92,4.92,0,0,1-2.89,3h-.73l.09-2.83h-2v2h-18v4h18v2h2v-3s5,1,6-4V95s0-31-26-62S112.58-4.23,81.63,2.38,20.68,32,11.68,55c0,0-15,18-11,77,0,0,0,5,3,7h3v2h2v-2h18v-3Z"/><path class="cls-3" d="M85.18,41.5s-2-11-7-7S84.18,41.5,85.18,41.5Z"/><path class="cls-3" d="M104.16,34.28s6.39-9.18,0-9.9S103.46,33.57,104.16,34.28Z"/><path class="cls-3" d="M123,42.39s10.4-4.09,5.51-8.22S122.78,41.41,123,42.39Z"/><path class="cls-4" d="M14.18,137.5v-3h8.36s1.64-4-2.36-5H19.13l.05-24s6-14,22-9c0,0,6,2,9,7,0,0-2,12,6,16,0,0,4,6,19,4a7.46,7.46,0,0,0,6,5s-2,30,4,36c0,0,2,7,20,7,0,0-1,4,4,4V165.42l-14,.08s-5,0-7-12a110.47,110.47,0,0,1-1-24s6,1,8-4c0,0,12,10,25-1v37.21s2,18.79-12,22.79h-10l0,10s4,0,4-5h7s13-1,16-18c0,0,1-9,1-21v-24s10,0,11-9c0,0,16,4,20-12,0,0,5-15,23-8,0,0,6,1,8,9v22.92s-3,1.08-3,6.08h8v1.91l3,.09s1-5-2-7l-1-1v-25a18.11,18.11,0,0,0-13-13c-11-3-20,3-20,3s7-17-10-20c0,0-1-36-35-16,0,0-21.6-20.62-38.3,2.19,0,0-12.7-8.19-17.7,7.81,0,0-21,2-14,24,0,0-25-8-30,11l-1,2.9v23.46s-4,.64-3,4.64v3Z"/><polygon class="cls-5" points="22.18 139.5 22.18 144.09 20.19 144.09 20.18 142.5 19.18 142.5 19.18 144.09 17.2 144.09 17.18 142.5 16.18 142.5 16.18 144.19 14.2 144.19 14.18 142.5 13.18 142.5 13.18 144.19 11.11 144.19 11.11 139.5 22.18 139.5"/><polygon class="cls-6" points="196.18 139.5 196.18 144.09 194.19 144.09 194.18 142.5 193.18 142.5 193.18 144.09 191.2 144.09 191.18 142.5 190.18 142.5 190.18 144.19 188.19 144.19 188.18 142.5 187.18 142.5 187.18 144.19 185.11 144.19 185.11 139.5 196.18 139.5"/><path class="cls-7" d="M116.84,61a36.76,36.76,0,0,1,1,24"/><path class="cls-7" d="M119.39,65.17s20-9.67,16,14.33"/><path class="cls-7" d="M132.34,87.5s21-8,23,10"/><path class="cls-7" d="M134.34,101.5s-2-19-21-7c0,0-5,5-1,13"/><path class="cls-7" d="M110.79,101s-12.45.46-2.45,15.46"/><path class="cls-7" d="M120.89,97.5s9.45,11-.55,27"/><path class="cls-8" d="M130.34,112.5a10.39,10.39,0,0,0,7,5"/><path class="cls-8" d="M150.34,74.5s0,6-3,6"/><path class="cls-9" d="M131.34,76.5s4.59-13.07-8.7-9"/><path class="cls-9" d="M123.34,59.5s14-7.62,20.5,7.19"/><path class="cls-9" d="M134.34,91.61s13-8.11,18,7.89"/><path class="cls-10" d="M156,89.55s3-6-4.32-9"/><path class="cls-10" d="M148.84,109.8a14.4,14.4,0,0,1-13.93,1.2"/><path class="cls-10" d="M129.34,96.5c2,1,1,5.61,1,5.61"/><path class="cls-10" d="M132.11,117.5s-1.59,4.52-7.18,3.76"/><path class="cls-10" d="M103.84,124.5s20.5-1,16.5-19.5"/><path class="cls-10" d="M88.34,123.5s-2.64,1.45-6.82-1.28"/><path class="cls-9" d="M66.34,118.5s-8.69,0-10.84-13.5"/><path class="cls-9" d="M84.93,107.5s-7.21,2.23-8.4-5.39"/><path class="cls-10" d="M65.34,92.5a12.09,12.09,0,0,1-12,1"/><path class="cls-9" d="M49.34,84.5s3-16,17-8"/><path class="cls-9" d="M65.34,68.54s0-7,7-4"/><path class="cls-9" d="M86.34,59.5s6.82-5.92,18.91-2"/><path class="cls-7" d="M108.35,59.5s6.9,13-11.06,17"/><path class="cls-7" d="M106.07,72.62s11.67,35-22.53,20.93"/><path class="cls-10" d="M105.25,86.34s-1.37,9.16-15.64,6.16"/><path class="cls-7" d="M99.34,88.5s-1.78-10-11.89-8"/><path class="cls-7" d="M83.54,63.75S97.34,84.5,73.34,87.5c0,0-8,0-12-6"/><path class="cls-10" d="M83.54,75.62s-.2,9.88-14.2,7.88"/><path class="cls-7" d="M73.34,95.5s-3,27,18,11"/><path class="cls-9" d="M89.07,84.5s3.12-2,6.7,3"/><path class="cls-9" d="M91.34,70.29s4-5.4,8-3.1"/><path class="cls-9" d="M115.9,105s-4.56-2.5.94-8.5"/><path class="cls-9" d="M109.65,112.5s-2.75-.41-2-6.21"/><path class="cls-7" d="M75.34,123.5s10.4-5.5,8.2-11.75"/><path class="cls-7" d="M96.75,112.5s2.59,9-1.41,13"/><path class="cls-10" d="M106.06,66.62s-1,6.68-8.63,5.53"/><path class="cls-10" d="M113.84,67s4,9.26,0,15.13"/></g></g></svg>