<svg xmlns="http://www.w3.org/2000/svg" xmlns:xlink="http://www.w3.org/1999/xlink" viewBox="0 0 190.8 252.18"><defs><style>.cls-1{fill:#fef5e0;}.cls-2{fill:#5d5085;}.cls-3{fill:#ee3d61;}.cls-4{fill:#eaefac;}.cls-5{fill:none;stroke:#5d5085;}.cls-5,.cls-6{stroke-miterlimit:10;}.cls-6{fill:#fff;stroke-width:0.5px;stroke:url(#Dégradé_sans_nom_6);}</style><linearGradient id="Dégradé_sans_nom_6" x1="125.21" y1="72.26" x2="168.83" y2="72.26" gradientUnits="userSpaceOnUse"><stop offset="0" stop-color="#111131"/><stop offset="1" stop-color="#e73b5f"/></linearGradient></defs><g id="Calque_2" data-name="Calque 2"><g id="Calque_1-2" data-name="Calque 1"><polygon class="cls-1" points="146.26 10.25 146.26 14.75 147.04 18.09 146.26 18.09 146.26 22.8 142.34 22.8 142.34 23.58 136.06 23.58 136.06 22.01 141.55 10.25 146.26 10.25"/><path class="cls-2" d="M146.26,10.25s-2.36,1.57-2.36,3.92,0,3.14-.78,3.14S141.55,15,141.55,15,139,14.21,140,18.09c0,0,1.57,3.14.79,3.92s-4.71,0-4.71,0-3.92-11-1.57-12.54S143.9,4.76,146.26,10.25Z"/><path class="cls-3" d="M146.26,14.21,190.8,7.14s-3-7.87-2.2-7.09-42.34,12.13-42.34,12.13Z"/><polygon class="cls-4" points="136.45 120.43 169.39 132.98 135.67 144.74 101.95 132.98 136.45 120.43"/><polygon class="cls-4" points="103.52 156.51 136.45 169.05 102.73 180.82 69.01 169.05 103.52 156.51"/><polygon class="cls-4" points="69.01 192.58 101.95 205.13 68.23 216.89 34.51 205.13 69.01 192.58"/><polygon class="cls-4" points="34.51 227.87 67.44 240.42 33.72 252.18 0 240.42 34.51 227.87"/><polygon class="cls-5" points="131.75 45.15 129.4 50.64 131.75 56.7 131.75 45.15"/><path class="cls-6" d="M163.12,10.64h5.41l-5.41,26.67L144.3,33.38s3.13,37.65,1.56,40h-3l-.17,56.46,8.62.79s-9.41,3.13-10.19,3.13S139.59,93,139.59,93L138,130.63l8.63-.79-11,3.92V74.14l-4.71,0s3.14-4.7.79-9.41-6.28-15.68-6.28-15.68l10.2-23.53h7.06v3.14L160,32.6Z"/></g></g></svg>