<svg xmlns="http://www.w3.org/2000/svg" viewBox="0 0 263.23 56.42"><defs><style>.cls-1{fill:#fff;}</style></defs><g id="Calque_2" data-name="Calque 2"><g id="Calque_1-2" data-name="Calque 1"><path class="cls-1" d="M37.87,11l11.57,0L43.57,30.13c-.68,2.22,0,3.33,2,3.34s3.43-1.1,4.11-3.32L55.55,11l11.5,0-6.31,20.6c-.89,2.89-2.93,5.19-6.21,7a22.9,22.9,0,0,1-11.36,2.67c-4.3,0-7.54-.91-9.71-2.74a6.09,6.09,0,0,1-1.9-7Z"/><path class="cls-1" d="M78.37,27.26,74.21,40.85l-11,0,7.83-25.54c.93-3,4.07-4.79,8.67-4.77,3.57,0,5.67,1.48,6.18,4.37l1.54,9,3.91-12.75,11,0L94.51,36.69c-.93,3-4.13,4.79-8.67,4.77-3.82,0-5.91-1.48-6.24-4.37Z"/><path class="cls-1" d="M98.66,40.92l9.12-29.75,11.56,0L110.22,41Z"/><path class="cls-1" d="M115.82,40.49l2.27-7.42a20.13,20.13,0,0,0,6.73,1.18c2.84,0,4.81-.88,5.25-2.3s-1.17-2.53-3.25-3.65c-3-1.57-6.84-4-5.32-8.73a11.11,11.11,0,0,1,5.62-6.47,21.77,21.77,0,0,1,10.74-2.41,31.15,31.15,0,0,1,7.06.86l1,.32L143.72,19a15.69,15.69,0,0,0-6.51-1.27c-2.61,0-4.08.65-4.49,2-.33,1.06,1.3,2.09,3.39,3.16,3.08,1.43,6.89,4,5.23,9.22-1.83,6-8.36,9.49-17.26,9.46a30.53,30.53,0,0,1-7.38-.82Z"/><path class="cls-1" d="M143.27,41.06l9.12-29.75,11.56,0-4,13.19,10.76-13.17,12.41,0L170.35,25.63l4,15.53-12.59,0L159.16,27,154.83,41.1Z"/><path class="cls-1" d="M179.61,37.53c-2.11-2.81-2.41-6.59-1-11.34A21,21,0,0,1,186.51,15a21.51,21.51,0,0,1,13.08-4.14c4.9,0,8.3,1.41,10.28,4.21s2.24,6.55.77,11.34a21.68,21.68,0,0,1-7.74,11.22,20.57,20.57,0,0,1-12.78,4.14C185.22,41.77,181.72,40.33,179.61,37.53ZM199,26.21c1.62-5.29,1-7.91-1.69-7.92s-4.86,2.61-6.48,7.89-1.09,7.91,1.63,7.92S197.39,31.49,199,26.21Z"/><path class="cls-1" d="M220.05,11.52l11.56,0-6.83,22.29,9.14,0-2.29,7.46-14.16,0c-4.6,0-6-1.66-4.9-5.35Z"/><path class="cls-1" d="M.08,15.13,2,9.73a3.07,3.07,0,0,1,2.17-2C14.3,5.24,71.22-7.14,147.3,5.82c0,0-71.89-5.81-116.43,4.26L21.22,39.69A2.33,2.33,0,0,1,19,41.31H12.8a1.14,1.14,0,0,1-1.07-1.49L20.44,12.4S7.7,15.17,1.69,16.88A1.34,1.34,0,0,1,.08,15.13Z"/><path class="cls-1" d="M116,48.11l2.51,5.13A3.09,3.09,0,0,0,120.89,55c10.39,1.23,68.4,6.59,142.34-15.53,0,0-70.65,14.52-116.08,9.94l-10.64-1s-13-1.2-19.15-2.17A1.34,1.34,0,0,0,116,48.11Z"/></g></g></svg>