<svg xmlns="http://www.w3.org/2000/svg" viewBox="0 0 45.6 49.53"><defs><style>.cls-1{fill:none;stroke:#fff;stroke-miterlimit:10;stroke-width:2px;}</style></defs><g id="Calque_2" data-name="Calque 2"><g id="Calque_1-2" data-name="Calque 1"><path class="cls-1" d="M12.64,32.57s-.17-.13-.49-.33c-3.89-2.54-8.83,3-5.08,5.68l13.76,9.93a3.56,3.56,0,0,0,1.88.67A8.25,8.25,0,0,0,26.06,48l13.23-4.78a4.34,4.34,0,0,0,1.6-1c1.53-1.51,4.73-5.23,3.39-8.92L37.94,15.74a2.94,2.94,0,0,0-.42-.78c-.56-.74-1.83-2.21-2.88-1.83-1.39.5-2.87,5.09-1.57,8.68l-1.9-5.25a3,3,0,0,0-1-1.36c-1.32-1-4-2.46-4.71,1.72a3.17,3.17,0,0,0,.13,1.59l1.92,5.3-2.21-6.09a3.09,3.09,0,0,0-1.71-1.8c-1.8-.79-5-1.46-6.6,2.51a3.07,3.07,0,0,0,0,2.21l2.23,6.19L12.12,7.27a2.93,2.93,0,0,0-1.07-1.42c-1.37-1-4.16-2.23-5.77,2a3.09,3.09,0,0,0,0,2.16l8.29,22.93Z"/><path class="cls-1" d="M1.18,11.72S-.56,4.24,6.91,1.54c6.94-2.51,9.68,4.6,9.68,4.6"/></g></g></svg>