<svg xmlns="http://www.w3.org/2000/svg" viewBox="0 0 574.5 138.39"><defs><style>.cls-1{fill:none;stroke:#fff;stroke-miterlimit:10;stroke-width:4px;}</style></defs><g id="Calque_2" data-name="Calque 2"><g id="Calque_1-2" data-name="Calque 1"><polyline class="cls-1" points="20.54 115.33 24.24 115.33 24.24 121.99 22.6 124.34 20.95 122.09 20.95 115.33"/><polygon class="cls-1" points="24.24 115.33 28.48 104.74 16.83 104.74 20.95 115.53 24.24 115.33"/><path class="cls-1" d="M5.18,32.72l0,0c2.07,2.07,4.2,3.14,7.28,4.8l5.11,2,.21.09a7.48,7.48,0,0,0,2.19.49c2.19.19,1.93.8,5.3,0l3.18-1.06,6.36-3.18,4.23-3.17v22H32.9l-2.3,46.81-2.12,3.17H16.83l-2.67-2.94L12,55.2,5.18,55Z"/><path class="cls-1" d="M2,19.48s21,6.93,41.21-.24"/><path class="cls-1" d="M574.5,119H50.25S38.57,118,38.57,128.57s-15.92,9.54-15.92,2.12v-7.41"/><ellipse class="cls-1" cx="22.65" cy="21.07" rx="20.65" ry="19.07"/></g></g></svg>