<svg xmlns="http://www.w3.org/2000/svg" xmlns:xlink="http://www.w3.org/1999/xlink" viewBox="0 0 234.02 4"><defs><style>.cls-1{fill:#fff;}.cls-2{fill:url(#Dégradé_sans_nom_19);}</style><linearGradient id="Dégradé_sans_nom_19" y1="2" x2="234.02" y2="2" gradientUnits="userSpaceOnUse"><stop offset="0" stop-color="#fff"/><stop offset="1" stop-color="#942b4d"/></linearGradient></defs><g id="Calque_2" data-name="Calque 2"><g id="Calque_1-2" data-name="Calque 1"><line class="cls-1" y1="2" x2="234.02" y2="2"/><path class="cls-2" d="M0,2C19.5,1.17,39,.74,58.51.44,68.26.26,78,.22,87.76.11L117,0l29.25.1c9.75.12,19.51.15,29.26.34,19.5.29,39,.73,58.5,1.56-19.5.83-39,1.27-58.5,1.56-9.75.19-19.51.22-29.26.33L117,4,87.76,3.89c-9.75-.11-19.5-.15-29.25-.34C39,3.26,19.5,2.83,0,2Z"/></g></g></svg>